<?xml version="1.0" encoding="iso-8859-1"?>
<!-- Generator: Adobe Illustrator 19.0.0, SVG Export Plug-In . SVG Version: 6.00 Build 0)  -->
<svg version="1.1" id="Layer_1" xmlns="http://www.w3.org/2000/svg" xmlns:xlink="http://www.w3.org/1999/xlink" x="0px" y="0px"
	 viewBox="0 0 435 435" style="enable-background:new 0 0 435 435;" xml:space="preserve">
<g>
	<rect x="72" y="70.5" style="fill:#4898DA;" width="70" height="49"/>
	<rect x="183" y="80.5" style="fill:#F4A026;" width="36" height="39"/>
	<path style="fill:#4898DA;" d="M341.18,80.5h-0.36c-9.842,0-17.82,7.978-17.82,17.82v21.18h36V98.32
		C359,88.478,351.022,80.5,341.18,80.5z"/>
	<rect y="114.5" style="fill:#37495E;" width="435" height="250"/>
	<circle style="fill:#EFEFEF;" cx="227.5" cy="239.5" r="92.5"/>
	<circle style="fill:#37495E;" cx="227.5" cy="239.5" r="55"/>
	<circle style="fill:#EFEFEF;" cx="220.5" cy="232.5" r="17"/>
	<path style="fill:#EFEFEF;" d="M370.49,154.5h15.02c9.659,0,17.49,7.831,17.49,17.49v0.353c0,9.66-7.831,17.49-17.49,17.49h-15.02
		c-9.659,0-17.49-7.83-17.49-17.49v-0.353C353,162.331,360.831,154.5,370.49,154.5z"/>
</g>
<g>
</g>
<g>
</g>
<g>
</g>
<g>
</g>
<g>
</g>
<g>
</g>
<g>
</g>
<g>
</g>
<g>
</g>
<g>
</g>
<g>
</g>
<g>
</g>
<g>
</g>
<g>
</g>
<g>
</g>
</svg>
