<?xml version="1.0" encoding="iso-8859-1"?>
<!-- Generator: Adobe Illustrator 19.0.0, SVG Export Plug-In . SVG Version: 6.00 Build 0)  -->
<svg version="1.1" id="Layer_1" xmlns="http://www.w3.org/2000/svg" xmlns:xlink="http://www.w3.org/1999/xlink" x="0px" y="0px"
	 viewBox="0 0 512 512" style="enable-background:new 0 0 512 512;" xml:space="preserve">
<polygon style="fill:#F7C02D;" points="453.527,0 256,0 235.085,265.404 256,512 453.527,512 "/>
<polygon style="fill:#FBE27B;" points="58.472,0 58.472,418.535 128,441.992 151.938,512 256,512 256,0 "/>
<g>
	<polygon style="fill:#F39624;" points="271.29,69.681 188.123,69.681 177.666,85.763 188.123,101.028 271.29,101.028 	"/>
	<polygon style="fill:#F39624;" points="271.29,123.581 188.123,123.581 177.666,139.663 188.123,154.928 271.29,154.928 	"/>
	<polygon style="fill:#F39624;" points="271.29,177.481 188.123,177.481 177.666,193.564 188.123,208.828 271.29,208.828 	"/>
</g>
<g>
	<polygon style="fill:#F7C02D;" points="151.938,512 151.938,418.535 58.472,418.535 	"/>
	<rect x="104.96" y="69.684" style="fill:#F7C02D;" width="83.163" height="31.347"/>
	<rect x="104.96" y="123.58" style="fill:#F7C02D;" width="83.163" height="31.347"/>
	<rect x="104.96" y="177.486" style="fill:#F7C02D;" width="83.163" height="31.347"/>
</g>
<g>
	<polygon style="fill:#F39624;" points="407.043,295.06 256,295.06 245.543,310.734 256,326.407 407.043,326.407 	"/>
	<polygon style="fill:#F39624;" points="407.043,349.441 256,349.441 245.543,365.115 256,380.788 407.043,380.788 	"/>
</g>
<g>
	<rect x="104.96" y="295.058" style="fill:#F7C02D;" width="151.04" height="31.347"/>
	<rect x="104.96" y="348.965" style="fill:#F7C02D;" width="151.04" height="31.347"/>
</g>
<polygon style="fill:#E43138;" points="343.327,142.491 353.785,210.724 353.785,210.724 383.795,221.504 383.795,152.948 "/>
<polygon style="fill:#F25F67;" points="323.773,152.948 323.773,221.504 353.785,210.724 353.785,152.948 "/>
<path style="fill:#D9000C;" d="M353.785,61.779l-20.915,50.525l20.915,50.525c27.904,0,50.526-22.621,50.526-50.525
	C404.311,84.4,381.689,61.779,353.785,61.779z"/>
<path style="fill:#E43138;" d="M303.259,112.305c0,27.904,22.621,50.525,50.526,50.525V61.779
	C325.88,61.779,303.259,84.4,303.259,112.305z"/>
<g>
</g>
<g>
</g>
<g>
</g>
<g>
</g>
<g>
</g>
<g>
</g>
<g>
</g>
<g>
</g>
<g>
</g>
<g>
</g>
<g>
</g>
<g>
</g>
<g>
</g>
<g>
</g>
<g>
</g>
</svg>
