<svg width="1865" height="1662" viewBox="0 0 1865 1662" fill="none" xmlns="http://www.w3.org/2000/svg">
<path fill-rule="evenodd" clip-rule="evenodd" d="M210.795 959.745C143.262 933.04 16.0413 1008.43 122.834 1077.55L969.384 1448.2L1197.15 1248.74L1401.32 1002.14L1563.09 744.563L1044.79 188.576L254.763 666.044L517.063 856.078C557.892 857.647 697.68 837.232 719.677 819.957C732.245 810.528 740.091 813.679 732.245 829.386C722.816 849.813 598.747 1033.58 449.53 1006.86L210.795 959.745V959.745Z" fill="#5DAFA6"/>
<path fill-rule="evenodd" clip-rule="evenodd" d="M601.873 790.113C663.129 790.113 713.387 739.855 713.387 678.599C713.387 617.343 663.129 567.085 601.873 567.085C540.616 567.085 490.359 617.343 490.359 678.599C490.359 739.855 540.616 790.113 601.873 790.113ZM769.922 733.578V841.953L823.318 907.918L851.592 890.642L788.767 841.953L769.922 733.578V733.578ZM91.4215 978.59L136.971 958.162C136.971 958.162 425.964 1057.12 513.912 1025.71C600.29 995.853 612.858 992.727 612.858 992.727C612.858 992.727 562.6 1050.84 523.328 1053.98C484.068 1058.69 136.958 973.869 136.958 973.869L99.2682 992.727C99.2682 992.727 91.4086 1044.57 119.683 1057.12C64.7298 1030.43 61.5781 1022.57 91.4215 978.59V978.59ZM306.603 1132.51L537.478 1189.05L845.315 1363.39L306.603 1132.51V1132.51Z" fill="white"/>
<path fill-rule="evenodd" clip-rule="evenodd" d="M1327.49 102.197L1300.79 64.4938L1123.28 177.577L1098.17 149.303L1281.93 36.2197L1256.79 0.0859375L246.916 596.929L235.918 752.41L322.296 725.705L338.003 812.084L418.104 794.808L429.102 907.892L520.202 856.051L254.763 664.475L1044.79 188.576L1563.07 741.425L1401.3 999.004L1197.13 1247.17L969.371 1446.63L122.821 1074.41C16.0283 1006.86 146.387 939.33 207.644 961.314L443.226 1035.14L400.815 912.626L344.28 986.436L294.022 845.092L217.06 944.038L168.371 760.283L88.2699 915.764C-34.2425 937.761 -35.8118 1097.96 133.82 1154.51L868.855 1452.92L967.789 1661.8L1087.18 1437.21L1256.79 1306.85L1346.31 1178.06L1511.22 1234.6L1530.07 1192.19L1373.02 1138.79L1390.29 1113.66L1545.77 1165.48L1564.62 1129.36L1418.55 1072.83L1435.83 1049.28L1580.32 1099.53L1597.6 1066.55L1460.96 1013.14L1479.81 984.867L1614.88 1032L1633.72 995.866L1506.5 945.608L1523.78 922.055L1649.43 964.466L1665.13 926.763L1548.91 884.364L1636.86 760.283L1864.6 845.105C1768.79 780.71 1795.49 659.767 1852.03 579.679L1643.15 743.02L1377.72 452.458L1512.79 364.497L1490.81 333.085L1351.03 424.171L1325.9 394.341L1470.39 304.811L1446.84 270.259L1289.79 355.068L1267.81 331.515L1423.29 237.277L1398.15 201.156L1233.24 293.825L1208.11 265.551L1374.59 168.174L1351.03 133.623L1179.84 234.138L1154.71 207.434L1327.49 102.197L1300.79 64.4938L1327.49 102.197V102.197Z" fill="#2F72AB"/>
<path fill-rule="evenodd" clip-rule="evenodd" d="M449.517 1016.29L488.789 945.608L523.341 1036.71L449.517 1016.29V1016.29ZM561.031 736.717C589.292 736.717 611.289 713.164 611.289 686.459C611.289 658.185 589.292 636.201 561.031 636.201C532.757 636.201 510.773 658.185 510.773 686.459C510.773 713.151 532.757 736.717 561.031 736.717Z" fill="#2F72AB"/>
<path fill-rule="evenodd" clip-rule="evenodd" d="M440.101 797.96L256.345 662.893L441.67 540.393L686.682 405.313L482.499 563.946L281.468 655.046L440.101 797.96ZM738.509 372.331L1044.79 188.576L1071.47 208.99L738.509 372.331ZM1558.37 735.147L1110.75 259.248L1222.27 433.587L1437.44 678.599L1547.37 760.27L1558.37 735.147Z" fill="white"/>
</svg>
